<?xml version="1.0" encoding="UTF-8" standalone="no"?>
<svg xmlns:dc="http://purl.org/dc/elements/1.1/" xmlns:cc="http://creativecommons.org/ns#" xmlns:rdf="http://www.w3.org/1999/02/22-rdf-syntax-ns#" xmlns:svg="http://www.w3.org/2000/svg" xmlns="http://www.w3.org/2000/svg" style="fill:none" id="svg4" version="1.1" viewBox="0 0 143 51.5378" height="51.5378" width="143">
  <metadata id="metadata10">
    <rdf:RDF>
      <cc:Work rdf:about="">
        <dc:format>image/svg+xml</dc:format>
        <dc:type rdf:resource="http://purl.org/dc/dcmitype/StillImage"/>
      </cc:Work>
    </rdf:RDF>
  </metadata>
  <defs id="defs8"/>
  <path style="fill:#0a0a23" id="path2" d="m 143,38.986 v -1.2077 h -9.752 v 1.2077 h 4.152 v 12.3277 h 1.431 V 38.986 Z m -1.097,-9.9885 -10.611,-17.006 10.456,-11.402537 h -4.695 L 123.515,15.7732 V 0.583004 H 119.73 V 28.9915 h 3.785 V 20.268 l 5.208,-5.6417 8.759,14.3617 z m -35.471,22.3102 h 8.437 v -1.2029 h -7.009 v -5.0384 h 5.694 V 43.8479 H 107.86 V 38.986 h 6.728 v -1.2077 h -8.156 z m 7.026,-22.3162 -6.431,-11.7578 c 3.038,-0.9466 5.799,-3.709 5.799,-7.97005 0,-5.44493 -3.747,-8.680646 -9.982,-8.680646 H 93.6511 V 28.9915 h 3.7877 V 17.8644 h 5.9182 l 5.879,11.1271 z M 103.041,14.7479 H 97.4376 V 3.77938 h 5.2864 c 3.946,0 6.319,2.05183 6.319,5.48427 0,3.43245 -2.249,5.48425 -5.997,5.48425 z m -8.3157,33.6663 c -0.639,-1.5785 -1.259,-2.9317 -1.991,-4.6414 l -2.5562,-5.9945 h -1.5415 l 6.0696,13.7548 h 0.0382 l 6.0886,-13.7548 h -1.5593 l -2.5562,5.9945 c -0.7332,1.7097 -1.3532,3.0629 -1.9922,4.6414 z M 84.9335,28.9915 h 4.0238 L 75.8582,0.109687 H 75.7795 L 62.6805,28.9915 h 4.0237 l 2.7624,-6.3128 H 82.1317 Z M 80.7511,19.561 h -9.9039 c 1.9339,-4.3398 3.3931,-7.7329 4.9717,-11.75664 1.5391,4.02374 2.9984,7.41684 4.9322,11.75664 z M 63.9406,37.7783 H 62.51 v 13.5294 h 1.4306 z M 51.266,25.633 C 51.266,11.5003 39.7681,0 25.633,0 11.4979,0 0,11.4979 0,25.633 c 0,14.1351 11.4979,25.633 25.633,25.633 14.1351,0 25.633,-11.4979 25.633,-25.633 z M 23.4536,1.55706 4.15493,36.7136 C 2.37827,33.2904 1.45202,29.4898 1.45452,25.633 1.45452,13.0359 11.1402,2.66464 23.4536,1.55944 Z M 24.9034,25.205 6.19961,36.0054 24.9034,1.93738 Z m 0,24.5838 C 20.9085,49.6674 17.006,48.5575 13.5452,46.5585 10.0843,44.5595 7.17302,41.7336 5.07176,38.3339 L 24.9034,26.8884 Z m 6.4702,-36.7112 c -0.0061,2.1039 -0.4559,4.1829 -1.3202,6.1011 -0.8643,1.9182 -2.1236,3.6324 -3.6955,5.0308 V 1.94334 c 1.5831,1.38974 2.8499,3.10265 3.7151,5.0233 0.8652,1.92065 1.3087,4.00446 1.3006,6.11096 z M 46.1847,12.919 29.9704,22.2781 c 1.8512,-2.7118 2.8451,-5.9171 2.853,-9.2005 0.0081,-2.1342 -0.406,-4.24896 -1.2185,-6.22247 -0.8126,-1.97351 -2.0074,-3.7668 -3.5159,-5.27661 3.6818,0.3815 7.227,1.60216 10.3632,3.56813 3.1362,1.96597 5.7799,4.6249 7.7277,7.77235 z M 46.9156,37.0868 27.0792,25.633 46.9156,14.1756 c 1.8984,3.5199 2.8923,7.4564 2.8923,11.4556 0,3.9992 -0.9939,7.9357 -2.8923,11.4556 z m -0.7321,1.2566 c -2.1019,3.3971 -5.0128,6.2205 -8.4724,8.2177 -3.4597,1.9973 -7.3603,3.1062 -11.3532,3.2277 V 26.8908 Z M 72.607,37.5553 h -0.0191 v 13.7524 h 1.4307 v -8.9834 c 0,-0.4316 -0.0179,-0.8274 -0.0179,-1.203 0.1121,0.1502 0.2623,0.3195 0.3934,0.4697 l 8.6259,9.9409 h 0.019 V 37.7783 h -1.4307 v 8.9823 c 0,0.4506 0.0191,0.8262 0.0191,1.2029 l -0.3946,-0.4709 z m 54.514,10.5227 c 0,1.3722 -1.354,2.1615 -3.12,2.1615 -1.485,0 -2.875,-0.5079 -3.758,-0.9395 v 1.4307 c 1.209,0.5281 2.513,0.8028 3.833,0.8071 2.65,0 4.454,-1.3114 4.454,-3.5516 0,-1.9732 -1.128,-3.0629 -3.834,-4.0214 -2.424,-0.8835 -3.081,-1.7288 -3.081,-2.9496 0,-1.3115 1.259,-2.1615 2.988,-2.1615 1.121,0.0272 2.224,0.2965 3.232,0.7892 V 38.248 c -1.039,-0.4493 -2.157,-0.6849 -3.288,-0.6927 -2.424,0 -4.341,1.2769 -4.341,3.5135 0,1.9541 1.108,3.0999 3.796,4.0536 2.384,0.8465 3.12,1.5797 3.12,2.9508 z"/>
</svg>