<svg id="Capa_1" enable-background="new 0 0 512 512" height="512" viewBox="0 0 512 512" width="512" xmlns="http://www.w3.org/2000/svg"><g><path d="m502 246h-236v-118c0-5.523-4.477-10-10-10s-10 4.477-10 10v54.445c-23.02-41.831-64.991-76.445-113-76.445-72.239 0-133 78.602-133 150 0 5.523 4.477 10 10 10h236v236c0 5.522 4.477 10 10 10s10-4.478 10-10v-172.445c27.912 50.721 73.41 76.445 113 76.445 71.956 0 133-78.31 133-150 0-5.523-4.477-10-10-10zm-461 0h-20.546c1.819-20.286 9.05-41.185 20.546-59.948zm41 0h-21v-85.825c6.549-6.765 13.633-12.701 21-17.618zm41 0h-21v-113.962c6.951-2.716 13.971-4.522 21-5.403zm41 0h-21v-119.365c7.028.881 14.049 2.687 21 5.403zm41 0h-21v-103.443c7.366 4.917 14.451 10.852 21 17.618zm20 0v-59.948c11.496 18.763 18.727 39.662 20.546 59.948zm62 79.948c-11.496-18.763-18.727-39.662-20.546-59.948h20.546zm41 43.495c-7.366-4.917-14.451-10.852-21-17.618v-85.825h21zm41 15.922c-7.028-.881-14.049-2.687-21-5.403v-113.962h21zm41-5.403c-6.951 2.716-13.971 4.522-21 5.403v-119.365h21zm41-28.137c-6.549 6.765-13.633 12.701-21 17.618v-103.443h21zm20-25.877v-59.958h20.546c-1.819 20.296-9.049 41.195-20.546 59.958z"/><path d="m90 346c5.523 0 10-4.477 10-10s-4.477-10-10-10h-80c-5.523 0-10 4.477-10 10s4.477 10 10 10z"/><path d="m502 166h-30v-30c0-5.523-4.477-10-10-10s-10 4.477-10 10v30h-30c-5.523 0-10 4.477-10 10s4.477 10 10 10h30v30c0 5.523 4.477 10 10 10s10-4.477 10-10v-30h30c5.523 0 10-4.477 10-10s-4.477-10-10-10z"/><circle cx="256" cy="83" r="10"/><path d="m246 38c0 5.523 4.477 10 10 10s10-4.477 10-10v-28c0-5.523-4.477-10-10-10s-10 4.477-10 10z"/></g></svg>