<?xml version="1.0" encoding="iso-8859-1"?>
<!-- Generator: Adobe Illustrator 19.0.0, SVG Export Plug-In . SVG Version: 6.00 Build 0)  -->
<svg version="1.1" id="Capa_1" xmlns="http://www.w3.org/2000/svg" xmlns:xlink="http://www.w3.org/1999/xlink" x="0px" y="0px"
	 viewBox="0 0 396.819 396.819" style="enable-background:new 0 0 396.819 396.819;" xml:space="preserve">
<g>
	<g>
		<path d="M352.103,44.679c-59.237-59.401-155.412-59.535-214.813-0.298c-57.316,57.157-59.741,149.218-5.515,209.314l-11.6,11.6
			c-9.372-9.373-24.568-9.375-33.941-0.003c-0.001,0.001-0.002,0.002-0.003,0.003l-79.2,79.2
			c-9.373,9.372-9.375,24.568-0.003,33.941c0.001,0.001,0.002,0.002,0.003,0.003l11.312,11.312c9.372,9.369,24.564,9.369,33.936,0
			l79.2-79.2c9.373-9.372,9.375-24.568,0.003-33.941c-0.001-0.001-0.002-0.002-0.003-0.003l11.6-11.6
			c62.24,56.247,158.292,51.388,214.539-10.851C411.948,194.037,409.521,101.856,352.103,44.679z M120.175,299.231l-79.2,79.2
			c-3.124,3.123-8.188,3.123-11.312,0l-11.312-11.32c-3.118-3.123-3.118-8.181,0-11.304l79.2-79.2c3.164-3.025,8.148-3.025,11.312,0
			l11.312,11.32C123.293,291.05,123.293,296.108,120.175,299.231z M340.799,248.327c-53.112,53.11-139.223,53.109-192.333-0.003
			s-53.109-139.223,0.003-192.333c53.111-53.109,139.219-53.109,192.33,0C393.824,109.139,393.824,195.179,340.799,248.327z"/>
	</g>
</g>
<g>
	<g>
		<path d="M329.479,67.303L329.479,67.303l-11.312,11.312c40.545,40.644,40.545,106.436,0,147.08l11.312,11.312
			C376.275,190.117,376.275,114.193,329.479,67.303z"/>
	</g>
</g>
<g>
</g>
<g>
</g>
<g>
</g>
<g>
</g>
<g>
</g>
<g>
</g>
<g>
</g>
<g>
</g>
<g>
</g>
<g>
</g>
<g>
</g>
<g>
</g>
<g>
</g>
<g>
</g>
<g>
</g>
</svg>
