<svg id="Capa_1" enable-background="new 0 0 512 512" height="512" viewBox="0 0 512 512" width="512" xmlns="http://www.w3.org/2000/svg"><g><g><path d="m502 438.386h-5.902v-21.762c0-11.246-7.853-20.689-18.368-23.163v-159.29c10.515-2.474 18.368-11.917 18.368-23.164v-21.762h5.704c5.523 0 10-4.478 10-10v-53.059c0-3.818-2.285-7.426-5.743-9.049l-245.793-115.637c-2.709-1.27-5.853-1.249-8.563.001l-245.79 115.637c-3.458 1.622-5.743 5.231-5.743 9.049v53.059c0 5.522 4.477 10 10 10h5.732v21.762c0 11.244 7.84 20.686 18.34 23.162v159.293c-10.5 2.477-18.34 11.918-18.34 23.161v21.762h-5.902c-5.523 0-10 4.478-10 10v53.059c0 5.522 4.477 10 10 10h492c5.523 0 10-4.478 10-10v-53.059c0-5.523-4.477-10-10-10zm-133.629 0v-21.762c0-2.061 1.755-3.802 3.833-3.802h100.061c2.078 0 3.833 1.741 3.833 3.802v21.762zm-44.134 0v-116.652c0-9.881-8.046-17.919-17.937-17.919h-100.628c-9.875 0-17.909 8.038-17.909 17.919v116.651h-24.134v-21.762c0-11.246-7.853-20.689-18.368-23.163v-159.29c10.515-2.474 18.368-11.917 18.368-23.164v-21.762h184.742v21.762c0 11.237 7.839 20.673 18.34 23.157v159.303c-10.501 2.485-18.34 11.921-18.34 23.156v21.762h-24.134zm-58.251 0v-114.57h38.251v114.57zm-58.223 0v-114.57h38.223v114.57zm-107.997-45.564v-158.012h25.495v158.013h-25.495zm-45.524 0v-158.012h25.524v158.013h-25.524zm-34.072-223.577v-33.059h190.916c5.523 0 10-4.478 10-10s-4.477-10-10-10h-156.17l201.07-94.597 201.07 94.597h-156.17c-5.523 0-10 4.478-10 10s4.477 10 10 10h190.916v33.059zm392.064 65.565v158.013h-25.523v-158.013zm45.496 0v158.013h-25.496v-158.013zm18.368-23.803c0 2.062-1.755 3.803-3.833 3.803h-100.061c-2.113 0-3.833-1.706-3.833-3.803v-21.762h107.727zm-332.469-21.762v21.762c0 2.062-1.755 3.803-3.833 3.803h-100.089c-2.098 0-3.805-1.706-3.805-3.803v-21.762zm-107.727 227.379c0-2.061 1.742-3.802 3.805-3.802h100.089c2.078 0 3.833 1.741 3.833 3.802v21.762h-107.727zm456.098 74.82h-472v-33.059h472z"/><path d="m255.986 205.617c-22.598 0-40.982 18.354-40.982 40.913 0 22.575 18.384 40.941 40.982 40.941 22.613 0 41.01-18.366 41.01-40.941 0-22.559-18.397-40.913-41.01-40.913zm0 61.855c-11.569 0-20.982-9.395-20.982-20.941 0-11.531 9.413-20.913 20.982-20.913 11.585 0 21.01 9.382 21.01 20.913 0 11.546-9.425 20.941-21.01 20.941z"/><path d="m255.986 136.187c5.523 0 10-4.478 10-10s-4.477-10-10-10h-.028c-5.523 0-9.986 4.478-9.986 10s4.491 10 10.014 10z"/></g></g></svg>