<?xml version="1.0" encoding="iso-8859-1"?>
<!-- Generator: Adobe Illustrator 18.0.0, SVG Export Plug-In . SVG Version: 6.00 Build 0)  -->
<!DOCTYPE svg PUBLIC "-//W3C//DTD SVG 1.1//EN" "http://www.w3.org/Graphics/SVG/1.1/DTD/svg11.dtd">
<svg version="1.1" id="Capa_1" xmlns="http://www.w3.org/2000/svg" xmlns:xlink="http://www.w3.org/1999/xlink" x="0px" y="0px"
	 viewBox="0 0 60 60" style="enable-background:new 0 0 60 60;" xml:space="preserve">
<g>
	<circle cx="37" cy="9.5" r="1"/>
	<circle cx="37" cy="15.5" r="1"/>
	<circle cx="40" cy="12.5" r="1"/>
	<circle cx="40" cy="18.5" r="1"/>
	<circle cx="34" cy="12.5" r="1"/>
	<circle cx="34" cy="18.5" r="1"/>
	<circle cx="37" cy="21.5" r="1"/>
	<circle cx="37" cy="27.5" r="1"/>
	<circle cx="40" cy="24.5" r="1"/>
	<circle cx="40" cy="30.5" r="1"/>
	<circle cx="34" cy="24.5" r="1"/>
	<circle cx="34" cy="30.5" r="1"/>
	<circle cx="37" cy="33.5" r="1"/>
	<circle cx="37" cy="39.5" r="1"/>
	<circle cx="40" cy="36.5" r="1"/>
	<circle cx="40" cy="42.5" r="1"/>
	<circle cx="34" cy="36.5" r="1"/>
	<circle cx="34" cy="42.5" r="1"/>
	<circle cx="37" cy="45.5" r="1"/>
	<circle cx="40" cy="48.5" r="1"/>
	<circle cx="34" cy="48.5" r="1"/>
	<path d="M59,51.5h-1v-37H46v37h-3v-45H31v45h-3v-14H16v14h-3v-23H1v23c-0.552,0-1,0.447-1,1s0.448,1,1,1h12h3h12h3h12h3h12h1
		c0.552,0,1-0.447,1-1S59.552,51.5,59,51.5z M3,51.5v-21h8v21H3z M18,51.5v-12h8v12H18z M38,51.5c0-0.552-0.448-1-1-1s-1,0.448-1,1
		h-3v-3v-6v-6v-6v-6v-6v-6v-4h4h4v4v6v6v6v6v6v6v3H38z M48,51.5v-35h8v35H48z"/>
</g>
<g>
</g>
<g>
</g>
<g>
</g>
<g>
</g>
<g>
</g>
<g>
</g>
<g>
</g>
<g>
</g>
<g>
</g>
<g>
</g>
<g>
</g>
<g>
</g>
<g>
</g>
<g>
</g>
<g>
</g>
</svg>
