<?xml version="1.0" encoding="iso-8859-1"?>
<!-- Generator: Adobe Illustrator 17.1.0, SVG Export Plug-In . SVG Version: 6.00 Build 0)  -->
<!DOCTYPE svg PUBLIC "-//W3C//DTD SVG 1.1//EN" "http://www.w3.org/Graphics/SVG/1.1/DTD/svg11.dtd">
<svg version="1.1" id="Capa_1" xmlns="http://www.w3.org/2000/svg" xmlns:xlink="http://www.w3.org/1999/xlink" x="0px" y="0px"
	 viewBox="0 0 362.001 362.001" style="enable-background:new 0 0 362.001 362.001;" xml:space="preserve">
<path d="M181,0C81.196,0,0,81.196,0,181.001c0,99.804,81.196,181,181,181s181-81.196,181-181C362.001,81.196,280.805,0,181,0z
	 M57.054,119.354c-2.092-8.016,2.71-16.21,10.726-18.302c6.602-1.722,13.319,1.24,16.654,6.816
	c7.514-12.02,17.209-22.7,28.581-31.252c20.094-15.111,44.038-23.099,69.241-23.099s49.147,7.987,69.241,23.099
	c19.421,14.605,34.003,35.389,41.059,58.523c2.417,7.924-2.048,16.307-9.972,18.724c-1.458,0.444-2.932,0.656-4.381,0.656
	c-6.426,0-12.37-4.162-14.342-10.628c-11.014-36.111-43.808-60.374-81.604-60.374c-27.878,0-53.022,13.21-68.725,34.627
	c6.237-0.901,12.614,2.21,15.573,8.159c3.689,7.417,0.668,16.421-6.749,20.11l-30.538,15.191c-2.753,1.369-5.714,2.057-8.658,2.057
	c-2.656,0-5.299-0.559-7.766-1.681c-5.201-2.366-9.032-6.969-10.509-12.628L57.054,119.354z M294.088,260.949
	c-1.27,0.331-2.544,0.49-3.798,0.49c-5.267,0-10.162-2.802-12.855-7.306c-7.514,12.02-17.209,22.701-28.581,31.253
	c-20.094,15.111-44.037,23.099-69.241,23.099c-25.204,0-49.147-7.987-69.241-23.099c-19.421-14.604-34.003-35.389-41.059-58.523
	c-2.417-7.924,2.048-16.307,9.972-18.724c7.926-2.417,16.307,2.048,18.724,9.972c11.013,36.111,43.808,60.374,81.604,60.374
	c27.878,0,53.022-13.21,68.725-34.627c-6.236,0.901-12.614-2.21-15.573-8.159c-3.689-7.417-0.668-16.421,6.749-20.11l30.537-15.191
	c5.237-2.605,11.223-2.741,16.427-0.375c5.201,2.367,9.031,6.97,10.508,12.629l7.829,29.997
	C306.906,250.663,302.104,258.857,294.088,260.949z"/>
<g>
</g>
<g>
</g>
<g>
</g>
<g>
</g>
<g>
</g>
<g>
</g>
<g>
</g>
<g>
</g>
<g>
</g>
<g>
</g>
<g>
</g>
<g>
</g>
<g>
</g>
<g>
</g>
<g>
</g>
</svg>
