<?xml version="1.0" encoding="iso-8859-1"?>
<!-- Generator: Adobe Illustrator 19.0.0, SVG Export Plug-In . SVG Version: 6.00 Build 0)  -->
<svg version="1.1" id="Capa_1" xmlns="http://www.w3.org/2000/svg" xmlns:xlink="http://www.w3.org/1999/xlink" x="0px" y="0px"
	 viewBox="0 0 480 480" style="enable-background:new 0 0 480 480;" xml:space="preserve">
<g>
	<g>
		<g>
			<path d="M200,232h48c22.091,0,40-17.909,40-40s-17.909-40-40-40h-48c-4.418,0-8,3.582-8,8v64C192,228.418,195.582,232,200,232z
				 M208,168h40c13.255,0,24,10.745,24,24s-10.745,24-24,24h-40V168z"/>
			<path d="M310.736,227.336c2.032-3.609,3.748-7.387,5.131-11.291c13.282-37.509-6.358-78.683-43.867-91.965V104
				c0-4.418-3.582-8-8-8h-32c-4.418,0-8,3.582-8,8v16h-16v-16c0-4.418-3.582-8-8-8h-32c-4.418,0-8,3.582-8,8v16h-16
				c-4.418,0-8,3.582-8,8v32c0,4.418,3.582,8,8,8h16v144h-16c-4.418,0-8,3.582-8,8v32c0,4.418,3.582,8,8,8h16v16
				c0,4.418,3.582,8,8,8h32c4.418,0,8-3.582,8-8v-16h16v16c0,4.418,3.582,8,8,8h32c4.418,0,8-3.582,8-8v-16
				c24.549-0.015,47.398-12.537,60.62-33.22C354.038,293.276,344.24,248.753,310.736,227.336z M272,344h-8c-4.418,0-8,3.582-8,8v16
				h-16v-16c0-4.418-3.582-8-8-8h-32c-4.418,0-8,3.582-8,8v16h-16v-16c0-4.418-3.582-8-8-8h-16v-16h16c4.418,0,8-3.582,8-8V160
				c0-4.418-3.582-8-8-8h-16v-16h16c4.418,0,8-3.582,8-8v-16h16v16c0,4.418,3.582,8,8,8h32c4.418,0,8-3.582,8-8v-16h16v18
				c0.001,3.647,2.469,6.832,6,7.744c7.019,1.811,13.619,4.967,19.435,9.293c24.815,18.459,29.968,53.54,11.509,78.355
				c-0.313,0.421-0.583,0.872-0.808,1.346c-1.89,3.993-0.186,8.763,3.808,10.654c19.546,9.26,32.012,28.948,32.024,50.576
				C327.986,318.896,302.928,343.983,272,344z"/>
			<path d="M272,248h-72c-4.418,0-8,3.582-8,8v64c0,4.418,3.582,8,8,8h72c22.091,0,40-17.909,40-40C312,265.909,294.091,248,272,248
				z M272,312h-64v-48h64c13.255,0,24,10.745,24,24S285.255,312,272,312z"/>
			<path d="M240,0C107.452,0,0,107.452,0,240s107.452,240,240,240c132.486-0.15,239.85-107.514,240-240C480,107.452,372.548,0,240,0
				z M240,464C116.288,464,16,363.712,16,240S116.288,16,240,16c123.653,0.141,223.859,100.347,224,224
				C464,363.712,363.712,464,240,464z"/>
			<path d="M240,32C125.125,32,32,125.125,32,240s93.125,208,208,208c114.82-0.132,207.868-93.18,208-208
				C448,125.125,354.875,32,240,32z M240,432c-106.039,0-192-85.961-192-192S133.961,48,240,48
				c105.987,0.123,191.877,86.013,192,192C432,346.039,346.039,432,240,432z"/>
		</g>
	</g>
</g>
<g>
</g>
<g>
</g>
<g>
</g>
<g>
</g>
<g>
</g>
<g>
</g>
<g>
</g>
<g>
</g>
<g>
</g>
<g>
</g>
<g>
</g>
<g>
</g>
<g>
</g>
<g>
</g>
<g>
</g>
</svg>
