<svg height="512pt" viewBox="-6 0 512 512.00015" width="512pt" xmlns="http://www.w3.org/2000/svg"><path d="m482.628906.0195312c-357.589844 0-333.796875-.0898437-338.890625.1210938-38.925781 1.660156-75.199219 18.085937-102.113281 46.253906-70.679688 73.933594-47.984375 194.375 42.636719 238.710938h-33.335938c-18.773437 0-34.046875 15.273437-34.046875 34.046875 0 18.777344 15.273438 34.050781 34.046875 34.050781h8.980469c-3.613281 5.414063-5.730469 11.910156-5.730469 18.894531s2.117188 13.480469 5.730469 18.894532h-8.980469c-18.773437 0-34.046875 15.273437-34.046875 34.046874 0 18.777344 15.273438 34.046876 34.046875 34.046876h2.753907c-15.015626 22.527343 1.191406 52.914062 28.339843 52.914062h400.609375c9.765625 0 17.710938-7.945312 17.710938-17.710938v-476.558593c0-9.765625-7.945313-17.7109378-17.710938-17.7109378zm-431.703125 337.9999998c-10.394531 0-18.863281-8.460937-18.863281-18.867187 0-10.402344 8.46875-18.863282 18.863281-18.863282h203.25c10.40625 0 18.867188 8.460938 18.867188 18.863282 0 10.40625-8.460938 18.867187-18.867188 18.867187zm142.707031 52.945313h-105.410156c-10.402344 0-18.863281-8.472656-18.863281-18.867188 0-10.40625 8.460937-18.867187 18.863281-18.867187h105.410156c-3.601562 5.40625-5.707031 11.902343-5.707031 18.867187s2.105469 13.460938 5.707031 18.867188zm194.304688 15.210937c10.402344 0 18.863281 8.460938 18.863281 18.863281 0 10.394532-8.460937 18.867188-18.863281 18.867188-7.617188 0-196 0-203.25 0-10.40625 0-18.867188-8.472656-18.867188-18.867188 0-10.402343 8.460938-18.863281 18.867188-18.863281zm-337.011719 37.730469c-10.394531 0-18.863281-8.472656-18.863281-18.867188 0-10.402343 8.46875-18.863281 18.863281-18.863281h105.421875c-7.613281 11.417969-7.617187 26.304688 0 37.730469-12.382812 0-93.203125 0-105.421875 0zm136.515625 52.914062h-105.421875c-10.40625 0-18.867187-8.460937-18.867187-18.867187s8.460937-18.867187 18.867187-18.867187h105.421875c-3.605468 5.40625-5.710937 11.894531-5.710937 18.867187s2.105469 13.460937 5.710937 18.867187zm231.578125 0c-9.324219 0-196.21875 0-203.242187 0-10.402344 0-18.863282-8.460937-18.863282-18.867187s8.460938-18.867187 18.863282-18.867187h203.242187c10.402344 0 18.863281 8.460937 18.863281 18.867187s-8.460937 18.867187-18.863281 18.867187zm66.140625-2.53125c0 1.394532-1.132812 2.53125-2.53125 2.53125h-35.285156c15.046875-22.515624-1.179688-52.914062-28.324219-52.914062h-2.753906c7.621094-11.398438 7.640625-26.296875-.011719-37.761719h8.96875c18.773438 0 34.046875-15.273437 34.046875-34.046875 0-18.773437-15.273437-34.046875-34.046875-34.046875h-44.257812c-4.191406 0-7.59375 3.398438-7.59375 7.589844s3.402344 7.589844 7.59375 7.589844h44.257812c10.40625 0 18.867188 8.460937 18.867188 18.867187 0 10.394532-8.460938 18.867188-18.867188 18.867188-7.699218 0-195.976562 0-203.25 0-10.394531 0-18.867187-8.472656-18.867187-18.867188 0-10.40625 8.472656-18.867187 18.867187-18.867187h128.628906c4.1875 0 7.589844-3.398438 7.589844-7.589844s-3.402344-7.589844-7.589844-7.589844h-68.105468c3.613281-5.414062 5.730468-11.914062 5.730468-18.898437 0-18.773438-15.273437-34.046875-34.050781-34.046875h-38.316406c24.550781-11.960938 45.765625-30.550781 60.878906-54.195313 2.257813-3.535156 1.222657-8.230468-2.308593-10.488281-3.53125-2.253906-8.21875-1.222656-10.484376 2.308594-24.917968 38.976562-69.296874 64.070312-118.984374 62.285156-72.28125-2.671875-129.769532-61.757813-129.769532-134.972656 0-75.25 62.738282-140.363281 144.953125-134.507813 91.367188 6.578125 147.160157 99.269532 116.59375 181.519532-1.457031 3.925781.546875 8.300781 4.484375 9.757812 3.925782 1.457031 8.296875-.546875 9.753906-4.476562 26.730469-72.09375-5.46875-153.121094-74.882812-187.136719h266.535156c1.398438 0 2.53125 1.132812 2.53125 2.53125zm0 0"/><path d="m147.636719 197.308594c-12.082031 0-17.523438-5.34375-21.496094-9.246094-2.203125-2.160156-3.941406-3.867188-6.191406-3.867188-4.042969 0-7.507813 4.929688-7.507813 8.964844 0 7.167969 11.804688 17.664063 30.121094 19.523438v15.742187c0 4.191407 3.398438 7.589844 7.59375 7.589844 4.191406 0 7.589844-3.398437 7.589844-7.589844v-16.285156c17.398437-3.214844 27.507812-15.667969 27.507812-34.683594 0-44.8125-53.261718-31.628906-53.261718-57.148437 0-12.660156 11.148437-15.316406 20.5-15.316406 8.933593 0 13.796874 2.507812 17.347656 4.335937 1.96875 1.015625 3.523437 1.816406 5.15625 1.816406 4.820312 0 7.34375-5.839843 7.34375-8.964843 0-7.628907-13.476563-11.148438-24.59375-11.996094v-18.324219c0-4.191406-3.398438-7.589844-7.589844-7.589844-4.195312 0-7.59375 3.398438-7.59375 7.589844v18.976563c0 .011718.003906.027343.003906.039062-11.625 2.109375-27.210937 8.996094-27.210937 30.730469 0 40.386719 53.265625 26.203125 53.265625 57.148437 0 11.964844-7.453125 18.554688-20.984375 18.554688zm0 0"/><path d="m60.675781 86.53125c-2.433593 3.417969-1.636719 8.15625 1.777344 10.589844 3.414063 2.429687 8.15625 1.636718 10.585937-1.78125 38.613282-54.199219 118.625-52.28125 155.332032 1.5625 46.269531 67.871094-10.882813 158.621094-91.78125 146.871094-57.488282-8.351563-94.910156-66.738282-76.183594-123.472657 1.3125-3.980469-.847656-8.273437-4.828125-9.585937-3.976563-1.316406-8.273437.847656-9.585937 4.828125-10.414063 31.546875-6.464844 67.179687 13.480468 96.433593 36.507813 53.550782 112 64.488282 162.199219 21.441407 42.410156-36.363281 50.769531-98.820313 19.242187-145.070313-42.667968-62.582031-135.515624-64.59375-180.238281-1.816406zm0 0"/><path d="m461.242188 57.121094h-151.308594c-4.191406 0-7.589844 3.398437-7.589844 7.589844 0 4.191406 3.398438 7.589843 7.589844 7.589843h151.308594c4.195312 0 7.59375-3.398437 7.59375-7.589843 0-4.191407-3.398438-7.589844-7.59375-7.589844zm0 0"/><path d="m461.242188 113.800781h-133.597657c-4.191406 0-7.589843 3.398438-7.589843 7.589844s3.398437 7.589844 7.589843 7.589844h133.597657c4.195312 0 7.59375-3.398438 7.59375-7.589844s-3.398438-7.589844-7.59375-7.589844zm0 0"/><path d="m452.519531 166.535156c-1.539062-4.425781-6.691406-6.414062-10.804687-4.171875l-45.09375 24.597657c-3.679688 2.007812-5.035156 6.621093-3.027344 10.300781 2.007812 3.679687 6.617188 5.035156 10.296875 3.027343l27.300781-14.890624-35.96875 85.941406-47.328125-33.246094c-2.699219-1.890625-6.308593-1.832031-8.9375.152344l-38.574219 29.121094c-3.347656 2.527343-4.011718 7.285156-1.484374 10.632812 2.527343 3.34375 7.285156 4.011719 10.628906 1.484375l34.160156-25.789063 50.527344 35.492188c3.960937 2.785156 9.492187 1.191406 11.363281-3.28125l39.53125-94.449219 8.960937 25.765625c1.378907 3.964844 5.703126 6.054688 9.664063 4.679688 3.960937-1.378906 6.054687-5.703125 4.675781-9.664063zm0 0"/></svg>