<svg id="Capa_1" enable-background="new 0 0 512 512" height="512" viewBox="0 0 512 512" width="512" xmlns="http://www.w3.org/2000/svg"><path d="m512 256c0-16.084-1.509-32.183-4.497-47.813-1.348-7.075-7.544-12.188-14.736-12.188h-235.767c-8.291 0-15 6.709-15 15v90c0 8.291 6.709 15 15 15h120.967c-7.537 15.258-17.924 28.497-30.121 39.635l84.78 84.78c48.781-46.475 79.374-111.875 79.374-184.414z"/><path d="m256 120c29.429 0 57.422 9.346 80.947 27.041 5.947 4.468 14.341 3.926 19.614-1.392l64.014-64.014c2.974-2.974 4.57-7.061 4.38-11.265s-2.124-8.13-5.347-10.84c-45.805-38.392-103.916-59.53-163.608-59.53-87.849 0-165.458 44.654-211.337 112.452l88.048 88.048c21.006-47.316 68.268-80.5 123.289-80.5z"/><path d="m256 512c57.263 0 109.993-19.2 152.602-51.187l-86.371-86.371c-19.742 11.116-42.306 17.558-66.231 17.558-55.021 0-102.283-33.184-123.289-80.5l-88.048 88.048c45.879 67.798 123.488 112.452 211.337 112.452z"/><path d="m122.184 277.605c-1.149-7.079-2.184-14.208-2.184-21.605s1.035-14.526 2.184-21.605l-94.124-94.124c-17.808 34.78-28.06 74.045-28.06 115.729s10.252 80.949 28.061 115.728z"/></svg>