<?xml version="1.0"?>
<svg xmlns="http://www.w3.org/2000/svg" width="512" height="512" viewBox="0 0 128 128"><g><path d="M37.448,10.75A7.759,7.759,0,0,0,29.7,18.5a1.75,1.75,0,0,0,3.5,0,4.254,4.254,0,0,1,4.25-4.25H48.839a1.75,1.75,0,0,0,0-3.5Z"/><path d="M59.323,10.75h-3.1a1.75,1.75,0,0,0,0,3.5h3.1a1.75,1.75,0,1,0,0-3.5Z"/><path d="M49.714,8.25h9.609a1.75,1.75,0,1,0,0-3.5H49.714a1.75,1.75,0,0,0,0,3.5Z"/><path d="M25.448,20.25A1.749,1.749,0,0,0,27.2,18.5,10.261,10.261,0,0,1,37.448,8.25h4.62a1.75,1.75,0,0,0,0-3.5h-4.62A13.765,13.765,0,0,0,23.7,18.5,1.749,1.749,0,0,0,25.448,20.25Z"/><path d="M82.973,10.75a7.759,7.759,0,0,0-7.75,7.75,1.75,1.75,0,0,0,3.5,0,4.254,4.254,0,0,1,4.25-4.25H88.25a1.75,1.75,0,0,0,0-3.5Z"/><path d="M93.875,12.5a1.749,1.749,0,0,0,1.75,1.75h9.223a1.75,1.75,0,0,0,0-3.5H95.625A1.749,1.749,0,0,0,93.875,12.5Z"/><path d="M102.437,8.25h2.411a1.75,1.75,0,0,0,0-3.5h-2.411a1.75,1.75,0,0,0,0,3.5Z"/><path d="M70.973,20.25a1.75,1.75,0,0,0,1.75-1.75A10.261,10.261,0,0,1,82.973,8.25h9.839a1.75,1.75,0,0,0,0-3.5H82.973A13.765,13.765,0,0,0,69.223,18.5,1.749,1.749,0,0,0,70.973,20.25Z"/><path d="M109.5,62.735a1.75,1.75,0,0,0-1.75,1.75v6a1.75,1.75,0,1,0,3.5,0v-6A1.75,1.75,0,0,0,109.5,62.735Z"/><path d="M121.5,113.75h-4.25v-62.1l4.459-.536a1.75,1.75,0,0,0-.418-3.474L85.648,51.922l-.96-20.136a1.747,1.747,0,0,0,1.035-1.594v-6a1.751,1.751,0,0,0-1.75-1.75h-20a1.75,1.75,0,0,0-1.75,1.75v6a1.747,1.747,0,0,0,1.039,1.6l-1.09,22.956L40.379,57.364l-1.212-25.58A1.746,1.746,0,0,0,40.2,30.192v-6a1.75,1.75,0,0,0-1.75-1.75h-20a1.75,1.75,0,0,0-1.75,1.75v6a1.748,1.748,0,0,0,1.044,1.6L14.551,98.75H13.22a1.75,1.75,0,0,0-1.748,1.666l-.64,13.334H6.5a1.749,1.749,0,0,0-1.75,1.75v6a1.749,1.749,0,0,0,1.75,1.75h115a1.749,1.749,0,0,0,1.75-1.75v-6A1.749,1.749,0,0,0,121.5,113.75Zm-17.569,0V95.5a1.75,1.75,0,0,0-1.75-1.75h-12a1.749,1.749,0,0,0-1.75,1.75v18.25h-2.7V95.5a1.75,1.75,0,0,0-1.75-1.75h-12a1.749,1.749,0,0,0-1.75,1.75v18.25H30.2V62.113l83.55-10.041V113.75Zm-3.5,0h-8.5V97.25h8.5Zm-18.2,0h-8.5V97.25h8.5Zm-16.5-87.808h16.5v2.5h-16.5Zm1.036,6H81.192l.972,20.4L65.7,54.321Zm-46.561-6H36.7v2.5H20.2Zm1.041,6H35.671l1.223,25.84L22.239,59.545a1.75,1.75,0,0,0,.207,3.487,1.879,1.879,0,0,0,.211-.012l4.043-.487V98.75H18.055ZM14.888,102.25H26.7v11.5H14.336Zm104.862,17.5H8.25v-2.5h111.5Z"/><path d="M60.448,87.917h-20a1.75,1.75,0,0,0,0,3.5h20a1.75,1.75,0,1,0,0-3.5Z"/><path d="M60.448,75.917h-20a1.75,1.75,0,0,0,0,3.5h20a1.75,1.75,0,1,0,0-3.5Z"/><path d="M60.448,81.917h-20a1.75,1.75,0,0,0,0,3.5h20a1.75,1.75,0,1,0,0-3.5Z"/><path d="M80.978,78.917h-6a1.749,1.749,0,0,0-1.75,1.75v6a1.749,1.749,0,0,0,1.75,1.75h6a1.75,1.75,0,0,0,1.75-1.75v-6A1.75,1.75,0,0,0,80.978,78.917Zm-1.75,6h-2.5v-2.5h2.5Z"/><path d="M99.181,78.917h-6a1.749,1.749,0,0,0-1.75,1.75v6a1.749,1.749,0,0,0,1.75,1.75h6a1.75,1.75,0,0,0,1.75-1.75v-6A1.75,1.75,0,0,0,99.181,78.917Zm-1.75,6h-2.5v-2.5h2.5Z"/></g></svg>
