<svg xmlns="http://www.w3.org/2000/svg" width="470" height="222" overflow="hidden">
    <g transform="matrix(0.9532119631767273, 0, 0, 0.9532119631767273, -25.127704620361328, -125.280141830444336)">
        <path d="M47.69,90.25c-0.069,0-0.14-0.006-0.21-0.02l-34.722-6.439c-0.624-0.115-1.036-0.715-0.921-1.34   c0.116-0.623,0.717-1.037,1.34-0.92l33.245,6.164l-1.82-22.307l-18.92-53.09c-0.214-0.598,0.099-1.256,0.697-1.469   c0.598-0.213,1.255,0.099,1.469,0.697L46.819,64.76c0.033,0.094,0.055,0.191,0.062,0.293l1.955,23.953   c0.028,0.357-0.11,0.707-0.376,0.947C48.248,90.145,47.973,90.25,47.69,90.25z" fill="#8afff3" transform="matrix(2.3875880241394043, 0, 0, 2.3875880241394043, 24.424518585205078, 128.12120056152344)"/>
        <path d="M47.689,90.25c-0.183,0-0.367-0.043-0.54-0.135c-0.561-0.301-0.772-0.996-0.474-1.557l33.803-63.391   c0.299-0.56,0.995-0.772,1.556-0.474c0.56,0.299,0.771,0.996,0.474,1.556L48.705,89.641C48.498,90.029,48.101,90.25,47.689,90.25z" fill="#4fcac0" transform="matrix(2.3875880241394043, 0, 0, 2.3875880241394043, 23.89333724975586, 128.6082305908203)"/>
        <path d="M45.737,66.295c-0.077,0-0.155-0.008-0.233-0.023l0,0c-0.001,0-0.002,0-0.002,0c-0.017-0.004-0.032-0.008-0.047-0.012l0,0   c-0.003,0-0.004,0-0.006-0.002l0,0c-0.213-0.055-0.396-0.164-0.539-0.312L10.716,31.75L6.281,55.965   c-0.114,0.625-0.714,1.037-1.338,0.924c-0.625-0.115-1.038-0.715-0.924-1.338l4.829-26.37c0.076-0.42,0.381-0.763,0.788-0.891   c0.408-0.127,0.854-0.018,1.155,0.285l34.292,34.292l9.896-42.656l-28.495-7.184c-0.526-0.132-0.888-0.614-0.868-1.156   s0.416-0.997,0.949-1.091l32.653-5.749c0.38-0.067,0.769,0.062,1.033,0.341c0.266,0.28,0.373,0.675,0.286,1.051l-2.81,12.109   l24.046,6.062c0.391,0.099,0.702,0.396,0.819,0.782c0.116,0.386,0.022,0.806-0.249,1.105L46.603,65.9   c-0.065,0.076-0.141,0.143-0.224,0.197c0,0.002-0.001,0.002-0.001,0.002c-0.001,0-0.001,0-0.002,0l-0.001,0.002   c-0.001,0-0.001,0-0.001,0c-0.017,0.012-0.032,0.021-0.049,0.031c-0.001,0-0.001,0-0.001,0c-0.001,0-0.001,0-0.002,0.002h-0.001   c-0.001,0-0.001,0-0.001,0C46.146,66.238,45.945,66.295,45.737,66.295z M57.209,20.773l-9.354,40.323l31.499-34.74L57.209,20.773z    M32.262,12.112l23.237,5.858l2.406-10.373L32.262,12.112z" fill="#26a69a" transform="matrix(2.3875880241394043, 0, 0, 2.3875880241394043, 23.886180877685547, 128.81785583496094)"/>
        <path d="M12.968,83.811c-0.145,0-0.287-0.027-0.419-0.078c-0.101-0.041-0.197-0.094-0.285-0.162   c-0.15-0.117-0.273-0.273-0.353-0.457c-0.02-0.047-0.037-0.096-0.05-0.143L4.046,56.078c-0.136-0.471,0.039-0.975,0.438-1.258   l51.203-36.386c0.455-0.323,1.075-0.273,1.473,0.117s0.457,1.01,0.143,1.47L16.579,79.428l28.615-15.297   c0.166-0.088,0.353-0.135,0.542-0.135h46.606L80.492,26.358L58.655,7.024c-0.475-0.421-0.52-1.147-0.098-1.623   c0.42-0.475,1.147-0.52,1.622-0.099l22.075,19.545c0.156,0.139,0.272,0.317,0.335,0.516l12.417,39.437   c0.109,0.348,0.047,0.729-0.17,1.023c-0.217,0.297-0.561,0.471-0.927,0.471H46.024L13.532,83.664   c-0.051,0.027-0.104,0.053-0.159,0.074c-0.069,0.025-0.141,0.045-0.212,0.057C13.097,83.807,13.032,83.811,12.968,83.811z    M6.482,56.221l6.912,23.785l38.356-55.953L6.482,56.221z" fill="#4fcac0" transform="matrix(2.3875880241394043, 0, 0, 2.3875880241394043, 23.98843765258789, 128.7154083251953)"/>
        <path fill="#196861" transform="matrix(2.3875880241394043, 0, 0, 2.3875880241394043, 24.87227439880371, 128.0879364013672)" d="M55.538,19.677m-4.901,0a4.901,4.901 0 1, 0 9.802,0a4.901,4.901 0 1, 0 -9.802,0"/>
        <path fill="#26a69a" transform="matrix(2.3875880241394043, 0, 0, 2.3875880241394043, 25.028173446655273, 128.2785186767578)" d="M23.472,42.596m-4.9,0a4.9,4.9 0 1, 0 9.8,0a4.9,4.9 0 1, 0 -9.8,0"/>
        <path fill="#196861" transform="matrix(2.3875880241394043, 0, 0, 2.3875880241394043, 24.40011978149414, 129.35693359375)" d="M45.736,65.145m-4.901,0a4.901,4.901 0 1, 0 9.802,0a4.901,4.901 0 1, 0 -9.802,0"/>
        <path fill="#8afff3" transform="matrix(2.3875880241394043, 0, 0, 2.3875880241394043, 23.846981048583984, 128.12213134765625)" d="M12.968,82.662m-4.901,0a4.901,4.901 0 1, 0 9.802,0a4.901,4.901 0 1, 0 -9.802,0"/>
        <path fill="#4fcac0" transform="matrix(2.3875880241394043, 0, 0, 2.3875880241394043, 24.331098556518555, 128.38638305664062)" d="M81.493,25.552m-4.901,0a4.901,4.901 0 1, 0 9.802,0a4.901,4.901 0 1, 0 -9.802,0"/>
        <path fill="#26a69a" transform="matrix(2.3875880241394043, 0, 0, 2.3875880241394043, 24.50743865966797, 129.4617462158203)" d="M47.69,89.1m-4.9,0a4.9,4.9 0 1, 0 9.8,0a4.9,4.9 0 1, 0 -9.8,0"/>
    </g>
    <path fill="grey" transform="matrix(0.6146143674850464, 0, 0, 0.6146143674850464, 125.86512756347656, 130.4231872558594)" d="M 36.06002829012583 0L 36.06002829012583 0L 7.78002829012583 0Q 6.08002829012583 0  5.32002829012583-0.76Q 4.560028290125829-1.52  4.560028290125829-3.22L 4.560028290125829-3.22L 4.560028290125829-13.69Q 4.560028290125829-15.39  5.32002829012583-16.15Q 6.08002829012583-16.91  7.78002829012583-16.91L 7.78002829012583-16.91L 31.86002829012583-16.91Q 33.020028290125836-16.91  33.600028290125834-17.67Q 34.18002829012583-18.43  34.18002829012583-19.51L 34.18002829012583-19.51Q 34.18002829012583-21.03  33.600028290125834-21.74Q 33.020028290125836-22.46  31.86002829012583-22.55L 31.86002829012583-22.55L 18.43002829012583-24.43Q 12.17002829012583-25.32  8.370028290125829-28.54Q 4.560028290125829-31.77  4.560028290125829-39.28L 4.560028290125829-39.28L 4.560028290125829-48.68Q 4.560028290125829-56.28  9.48002829012583-60.35Q 14.41002829012583-64.43  23.09002829012583-64.43L 23.09002829012583-64.43L 48.14002829012583-64.43Q 49.84002829012583-64.43  50.600028290125834-63.67Q 51.360028290125825-62.9  51.360028290125825-61.2L 51.360028290125825-61.2L 51.360028290125825-50.56Q 51.360028290125825-48.86  50.600028290125834-48.1Q 49.84002829012583-47.34  48.14002829012583-47.34L 48.14002829012583-47.34L 27.29002829012583-47.34Q 26.13002829012583-47.34  25.50002829012583-46.57Q 24.88002829012583-45.81  24.88002829012583-44.65L 24.88002829012583-44.65Q 24.88002829012583-43.49  25.50002829012583-42.68Q 26.13002829012583-41.88  27.29002829012583-41.79L 27.29002829012583-41.79L 40.62002829012583-40Q 46.89002829012583-39.1  50.740028290125835-35.88Q 54.580028290125824-32.66  54.580028290125824-25.14L 54.580028290125824-25.14L 54.580028290125824-15.75Q 54.580028290125824-8.14  49.62002829012583-4.07Q 44.65002829012583 0  36.06002829012583 0ZM 93.86752908153815 0L 93.86752908153815 0L 79.36752908153815 0Q 77.66752908153813 0  76.90752908153814-0.76Q 76.14752908153814-1.52  76.14752908153814-3.22L 76.14752908153814-3.22L 76.14752908153814-47.16L 62.99752908153815-47.16Q 61.297529081538144-47.16  60.537529081538146-47.92Q 59.77752908153814-48.68  59.77752908153814-50.38L 59.77752908153814-50.38L 59.77752908153814-61.2Q 59.77752908153814-62.9  60.537529081538146-63.67Q 61.297529081538144-64.43  62.99752908153815-64.43L 62.99752908153815-64.43L 110.23752908153814-64.43Q 111.93752908153814-64.43  112.69752908153814-63.67Q 113.45752908153814-62.9  113.45752908153814-61.2L 113.45752908153814-61.2L 113.45752908153814-50.38Q 113.45752908153814-48.68  112.69752908153814-47.92Q 111.93752908153814-47.16  110.23752908153814-47.16L 110.23752908153814-47.16L 97.08752908153815-47.16L 97.08752908153815-3.22Q 97.08752908153815-1.52  96.32752908153815-0.76Q 95.56752908153814 0  93.86752908153815 0ZM 176.27932426485975-47.42L 176.27932426485975-16.91Q 176.27932426485975-12.8  175.06932426485974-9.44Q 173.85932426485977-6.08  170.76932426485973-3.71Q 167.68932426485975-1.34  162.26932426485973 0Q 156.85932426485977 1.34  148.53932426485974 1.34L 148.53932426485974 1.34Q 140.21932426485975 1.34  134.75932426485974 0Q 129.29932426485973-1.34  126.20932426485975-3.71Q 123.12932426485975-6.08  121.91932426485975-9.44Q 120.70932426485975-12.8  120.70932426485975-16.91L 120.70932426485975-16.91L 120.70932426485975-47.42Q 120.70932426485975-51.54  121.91932426485975-54.9Q 123.12932426485975-58.25  126.20932426485975-60.67Q 129.29932426485973-63.08  134.75932426485974-64.43Q 140.21932426485975-65.77  148.53932426485974-65.77L 148.53932426485974-65.77Q 156.85932426485977-65.77  162.26932426485973-64.43Q 167.68932426485975-63.08  170.76932426485973-60.67Q 173.85932426485977-58.25  175.06932426485974-54.9Q 176.27932426485975-51.54  176.27932426485975-47.42L 176.27932426485975-47.42ZM 141.01932426485973-44.2L 141.01932426485973-20.13Q 141.01932426485973-18.34  142.35932426485974-17.14Q 143.70932426485976-15.93  148.53932426485974-15.93L 148.53932426485974-15.93Q 153.36932426485976-15.93  154.70932426485973-17.14Q 156.04932426485976-18.34  156.04932426485976-20.13L 156.04932426485976-20.13L 156.04932426485976-44.2Q 156.04932426485976-45.9  154.70932426485973-47.11Q 153.36932426485976-48.32  148.53932426485974-48.32L 148.53932426485974-48.32Q 143.70932426485976-48.32  142.35932426485974-47.11Q 141.01932426485973-45.9  141.01932426485973-44.2L 141.01932426485973-44.2ZM 230.50647673429535 0L 230.50647673429535 0L 208.66647673429534 0Q 197.48647673429537 0  192.06647673429535-4.47Q 186.65647673429535-8.95  186.65647673429535-18.25L 186.65647673429535-18.25L 186.65647673429535-46.08Q 186.65647673429535-55.39  192.06647673429535-59.91Q 197.48647673429537-64.43  208.66647673429534-64.43L 208.66647673429534-64.43L 230.50647673429535-64.43Q 232.20647673429536-64.43  232.96647673429536-63.67Q 233.72647673429535-62.9  233.72647673429535-61.2L 233.72647673429535-61.2L 233.72647673429535-50.38Q 233.72647673429535-48.68  232.96647673429536-47.92Q 232.20647673429536-47.16  230.50647673429535-47.16L 230.50647673429535-47.16L 212.51647673429537-47.16Q 209.74647673429536-47.16  208.39647673429536-46.04Q 207.05647673429536-44.92  207.05647673429536-42.68L 207.05647673429536-42.68L 207.05647673429536-21.39Q 207.05647673429536-19.15  208.39647673429536-18.12Q 209.74647673429536-17.09  212.51647673429537-17.09L 212.51647673429537-17.09L 230.50647673429535-17.09Q 232.20647673429536-17.09  232.96647673429536-16.33Q 233.72647673429535-15.57  233.72647673429535-13.87L 233.72647673429535-13.87L 233.72647673429535-3.22Q 233.72647673429535-1.52  232.96647673429536-0.76Q 232.20647673429536 0  230.50647673429535 0ZM 260.9202105879826 0L 260.9202105879826 0L 247.0602105879826 0Q 245.36021058798258 0  244.5902105879826-0.76Q 243.83021058798258-1.52  243.83021058798258-3.22L 243.83021058798258-3.22L 243.83021058798258-61.2Q 243.83021058798258-62.9  244.5902105879826-63.67Q 245.36021058798258-64.43  247.0602105879826-64.43L 247.0602105879826-64.43L 260.9202105879826-64.43Q 262.63021058798256-64.43  263.3902105879826-63.67Q 264.1502105879826-62.9  264.1502105879826-61.2L 264.1502105879826-61.2L 264.1502105879826-40.62L 267.7302105879826-40.62L 276.9402105879826-61.47Q 277.5702105879826-63.08  278.6402105879826-63.75Q 279.7202105879826-64.43  281.4202105879826-64.43L 281.4202105879826-64.43L 295.2002105879826-64.43Q 296.7202105879826-64.43  297.25021058798256-63.67Q 297.7902105879826-62.9  297.1602105879826-61.47L 297.1602105879826-61.47L 288.0402105879826-40.62Q 293.0502105879826-40.36  296.0502105879826-37.09Q 299.0402105879826-33.82  299.0402105879826-28.45L 299.0402105879826-28.45L 299.0402105879826-3.22Q 299.0402105879826-1.52  298.2802105879826-0.76Q 297.5202105879826 0  295.8202105879826 0L 295.8202105879826 0L 282.0402105879826 0Q 280.3402105879826 0  279.5802105879826-0.76Q 278.8202105879826-1.52  278.8202105879826-3.22L 278.8202105879826-3.22L 278.8202105879826-20.67Q 278.8202105879826-22.1  278.1102105879826-22.91Q 277.3902105879826-23.71  275.9602105879826-23.71L 275.9602105879826-23.71L 264.1502105879826-23.71L 264.1502105879826-3.22Q 264.1502105879826-1.52  263.3902105879826-0.76Q 262.63021058798256 0  260.9202105879826 0ZM 340.4726721647762 0L 340.4726721647762 0L 312.1926721647762 0Q 310.4926721647762 0  309.7326721647762-0.76Q 308.9726721647762-1.52  308.9726721647762-3.22L 308.9726721647762-3.22L 308.9726721647762-13.69Q 308.9726721647762-15.39  309.7326721647762-16.15Q 310.4926721647762-16.91  312.1926721647762-16.91L 312.1926721647762-16.91L 336.2726721647762-16.91Q 337.4326721647762-16.91  338.01267216477623-17.67Q 338.5926721647762-18.43  338.5926721647762-19.51L 338.5926721647762-19.51Q 338.5926721647762-21.03  338.01267216477623-21.74Q 337.4326721647762-22.46  336.2726721647762-22.55L 336.2726721647762-22.55L 322.8426721647762-24.43Q 316.5826721647762-25.32  312.7826721647762-28.54Q 308.9726721647762-31.77  308.9726721647762-39.28L 308.9726721647762-39.28L 308.9726721647762-48.68Q 308.9726721647762-56.28  313.89267216477623-60.35Q 318.82267216477624-64.43  327.5026721647762-64.43L 327.5026721647762-64.43L 352.5526721647762-64.43Q 354.2526721647762-64.43  355.01267216477623-63.67Q 355.7726721647762-62.9  355.7726721647762-61.2L 355.7726721647762-61.2L 355.7726721647762-50.56Q 355.7726721647762-48.86  355.01267216477623-48.1Q 354.2526721647762-47.34  352.5526721647762-47.34L 352.5526721647762-47.34L 331.70267216477623-47.34Q 330.5426721647762-47.34  329.9126721647762-46.57Q 329.2926721647762-45.81  329.2926721647762-44.65L 329.2926721647762-44.65Q 329.2926721647762-43.49  329.9126721647762-42.68Q 330.5426721647762-41.88  331.70267216477623-41.79L 331.70267216477623-41.79L 345.0326721647762-40Q 351.3026721647762-39.1  355.1526721647762-35.88Q 358.9926721647762-32.66  358.9926721647762-25.14L 358.9926721647762-25.14L 358.9926721647762-15.75Q 358.9926721647762-8.14  354.0326721647762-4.07Q 349.0626721647762 0  340.4726721647762 0ZM 413.4849892361208 0L 413.4849892361208 0L 371.97498923612073 0Q 370.27498923612075 0  369.50498923612076-0.76Q 368.7449892361208-1.52  368.7449892361208-3.22L 368.7449892361208-3.22L 368.7449892361208-61.2Q 368.7449892361208-62.9  369.50498923612076-63.67Q 370.27498923612075-64.43  371.97498923612073-64.43L 371.97498923612073-64.43L 413.4849892361208-64.43Q 415.18498923612077-64.43  415.95498923612075-63.67Q 416.71498923612074-62.9  416.71498923612074-61.2L 416.71498923612074-61.2L 416.71498923612074-50.74Q 416.71498923612074-49.04  415.95498923612075-48.27Q 415.18498923612077-47.51  413.4849892361208-47.51L 413.4849892361208-47.51L 388.7949892361207-47.51L 388.7949892361207-40.62L 406.2449892361208-40.62Q 407.94498923612076-40.62  408.70498923612075-39.86Q 409.46498923612074-39.1  409.46498923612074-37.4L 409.46498923612074-37.4L 409.46498923612074-27.83Q 409.46498923612074-26.13  408.70498923612075-25.37Q 407.94498923612076-24.61  406.2449892361208-24.61L 406.2449892361208-24.61L 388.7949892361207-24.61L 388.7949892361207-16.91L 413.4849892361208-16.91Q 415.18498923612077-16.91  415.95498923612075-16.15Q 416.71498923612074-15.39  416.71498923612074-13.69L 416.71498923612074-13.69L 416.71498923612074-3.22Q 416.71498923612074-1.52  415.95498923612075-0.76Q 415.18498923612077 0  413.4849892361208 0ZM 454.20524310918125-48.32L 447.4952431091812-48.32L 447.4952431091812-36.87L 454.20524310918125-36.87Q 456.52524310918125-36.87  457.33524310918125-38.07Q 458.13524310918126-39.28  458.13524310918126-41.07L 458.13524310918126-41.07L 458.13524310918126-44.11Q 458.13524310918126-45.9  457.33524310918125-47.11Q 456.52524310918125-48.32  454.20524310918125-48.32L 454.20524310918125-48.32ZM 444.27524310918125 0L 444.27524310918125 0L 430.4952431091812 0Q 428.79524310918123 0  428.02524310918125-0.76Q 427.26524310918126-1.52  427.26524310918126-3.22L 427.26524310918126-3.22L 427.26524310918126-61.2Q 427.26524310918126-62.9  428.02524310918125-63.67Q 428.79524310918123-64.43  430.4952431091812-64.43L 430.4952431091812-64.43L 460.28524310918124-64.43Q 470.3052431091812-64.43  474.1152431091812-60.27Q 477.91524310918123-56.1  477.91524310918123-49.48L 477.91524310918123-49.48L 477.91524310918123-45.37Q 477.91524310918123-41.61  476.79524310918123-38.97Q 475.6752431091812-36.33  472.90524310918124-35.17L 472.90524310918124-35.17Q 477.7352431091812-34.63  480.7352431091812-31.23Q 483.7352431091812-27.83  483.7352431091812-22.19L 483.7352431091812-22.19L 483.7352431091812-3.22Q 483.7352431091812-1.52  482.97524310918124-0.76Q 482.21524310918124 0  480.51524310918126 0L 480.51524310918126 0L 466.64524310918125 0Q 464.94524310918126 0  464.1752431091812-0.76Q 463.41524310918123-1.52  463.41524310918123-3.22L 463.41524310918123-3.22L 463.41524310918123-16.91Q 463.41524310918123-18.88  462.65524310918124-19.82Q 461.89524310918125-20.76  460.01524310918126-20.76L 460.01524310918126-20.76L 447.4952431091812-20.76L 447.4952431091812-3.22Q 447.4952431091812-1.52  446.7352431091812-0.76Q 445.97524310918124 0  444.27524310918125 0ZM 517.1092406424482-45.64L 517.1092406424482-45.64L 512.8992406424483-32.03L 526.9492406424482-32.03L 522.7492406424482-45.64Q 522.3892406424482-46.44  521.9892406424482-46.8Q 521.5792406424482-47.16  521.0492406424482-47.16L 521.0492406424482-47.16L 518.8092406424482-47.16Q 518.2692406424483-47.16  517.8692406424482-46.8Q 517.4692406424482-46.44  517.1092406424482-45.64ZM 512.0092406424482-15.75L 512.0092406424482-3.22Q 512.0092406424482-1.52  511.2492406424482-0.76Q 510.48924064244824 0  508.7892406424482 0L 508.7892406424482 0L 495.6292406424482 0Q 493.92924064244824 0  493.1692406424482-0.76Q 492.4092406424482-1.52  492.4092406424482-3.22L 492.4092406424482-3.22L 492.4092406424482-26.84Q 492.4092406424482-29.53  493.2592406424482-33.02Q 494.1092406424482-36.51  495.8992406424482-41.16L 495.8992406424482-41.16L 503.6892406424482-61.47Q 504.2192406424482-62.99  505.3392406424482-63.71Q 506.4592406424482-64.43  508.2492406424482-64.43L 508.2492406424482-64.43L 532.3192406424482-64.43Q 534.0192406424483-64.43  535.1392406424482-63.71Q 536.2592406424482-62.99  536.7892406424482-61.47L 536.7892406424482-61.47L 544.5792406424482-41.16Q 546.3692406424482-36.51  547.2192406424482-33.02Q 548.0692406424482-29.53  548.0692406424482-26.84L 548.0692406424482-26.84L 548.0692406424482-3.22Q 548.0692406424482-1.52  547.3092406424482-0.76Q 546.5492406424482 0  544.8492406424482 0L 544.8492406424482 0L 531.3392406424482 0Q 529.5492406424482 0  528.6992406424482-0.76Q 527.8492406424482-1.52  527.8492406424482-3.22L 527.8492406424482-3.22L 527.8492406424482-15.75L 512.0092406424482-15.75Z"/>
</svg>