<svg width="301" height="201" xmlns="http://www.w3.org/2000/svg" xmlns:xlink="http://www.w3.org/1999/xlink" overflow="hidden"><defs><clipPath id="clip0"><rect x="409" y="444" width="301" height="201"/></clipPath><clipPath id="clip1"><rect x="434" y="459" width="255" height="157"/></clipPath><clipPath id="clip2"><rect x="434" y="459" width="255" height="157"/></clipPath><clipPath id="clip3"><rect x="434" y="459" width="255" height="157"/></clipPath></defs><g clip-path="url(#clip0)" transform="translate(-409 -444)"><path d="M429.5 476.167C429.5 459.23 443.23 445.5 460.167 445.5L678.833 445.5C695.77 445.5 709.5 459.23 709.5 476.167L709.5 598.833C709.5 615.77 695.77 629.5 678.833 629.5L460.167 629.5C443.23 629.5 429.5 615.77 429.5 598.833Z" stroke="#2F528F" stroke-width="1.33333" stroke-miterlimit="8" fill="#B4C7E7" fill-rule="evenodd" fill-opacity="0"/><g clip-path="url(#clip1)"><path d="M443.5 558.5 443.5 603.5M463.5 556.5 463.5 602.5M483.5 556.5 483.5 601.5M502.5 555.5 502.5 603.5M522.5 577.5 522.5 609.5M542.5 532.5 542.5 560.5M561.5 504.5 561.5 547.5M581.5 470.5 581.5 511.5M600.5 491.5 600.5 522.5M620.5 502.5 620.5 526.5M640.5 480.5 640.5 508.5M659.5 470.5 659.5 492.5M679.5 470.5 679.5 478.5" stroke="#44546A" stroke-linejoin="round" stroke-miterlimit="10" fill="none"/></g><g clip-path="url(#clip2)"><path d="M459.5 589.5 467.5 589.5 467.5 575.5 459.5 575.5ZM479.5 575.5 487.5 575.5 487.5 563.5 479.5 563.5ZM538.5 558.5 545.5 558.5 545.5 536.5 538.5 536.5ZM557.5 532.5 565.5 532.5 565.5 509.5 557.5 509.5ZM577.5 502.5 585.5 502.5 585.5 486.5 577.5 486.5ZM616.5 512.5 624.5 512.5 624.5 510.5 616.5 510.5ZM636.5 506.5 644.5 506.5 644.5 481.5 636.5 481.5ZM655.5 481.5 663.5 481.5 663.5 478.5 655.5 478.5ZM675.5 473.5 683.5 473.5 683.5 470.5 675.5 470.5Z" stroke="#595959" stroke-linejoin="round" stroke-miterlimit="10" fill="#FFFFFF"/></g><g clip-path="url(#clip3)"><path d="M439.5 569.5 447.5 569.5 447.5 589.5 439.5 589.5ZM498.5 563.5 506.5 563.5 506.5 579.5 498.5 579.5ZM518.5 579.5 526.5 579.5 526.5 596.5 518.5 596.5ZM597.5 501.5 604.5 501.5 604.5 509.5 597.5 509.5Z" stroke="#595959" stroke-linejoin="round" stroke-miterlimit="10" fill="#44546A"/></g></g></svg>