<?xml version="1.0" encoding="UTF-8"?>
<svg xmlns="http://www.w3.org/2000/svg" id="Outline" viewBox="0 0 512 512" width="512" height="512"><path d="M488,440a8,8,0,0,0-8,8v32H464V440a8,8,0,0,0-16,0v40H432V416a8,8,0,0,0-16,0v64H400V464a8,8,0,0,0-16,0v16H360V448a8,8,0,0,0-16,0v32H328V448a8,8,0,0,0-16,0v32H296V440a8,8,0,0,0-16,0v40H264V416a8,8,0,0,0-16,0v64H232V464a8,8,0,0,0-16,0v16H192V464a8,8,0,0,0-16,0v16H160V440a8,8,0,0,0-16,0v40H128V408a8,8,0,0,0-16,0v72H96V424a8,8,0,0,0-16,0v56H64V448a8,8,0,0,0-16,0v32H32V346.806l52.72-65.9L104.337,346.3a8,8,0,0,0,13.32,3.358L141.3,326.013l43.346,101.138A8,8,0,0,0,191.913,432H192a8,8,0,0,0,7.283-4.689l72.1-158.624,33.148,86.185a8,8,0,0,0,14.175,1.488l77.314-118.945,20.955,38.416a8,8,0,0,0,14.542-1.1l17.844-49.072L467.35,238.51a8,8,0,0,0,12.411-4.57l16-64a8,8,0,1,0-15.522-3.88l-13.15,52.6-12.05-8.607,8.48-23.319a8,8,0,1,0-15.038-5.468L441.524,200.4,420.65,185.49a8,8,0,0,0-11.358,2.15l-12.067,18.565-14.2-26.036a8,8,0,0,0-13.772-.464L316.6,262.436l-34.963-11.655-2.174-5.653a8,8,0,0,0-14.75-.439L259.394,256.4l-45.862,40.129-13.641-81.844a8,8,0,0,0-13.548-4.342L127.406,269.28,93,241.753a7.993,7.993,0,0,0-7.807-1.243L32,260.456V24a8,8,0,0,0-16,0V488a8,8,0,0,0,8,8H488a8,8,0,0,0,8-8V448A8,8,0,0,0,488,440ZM418.152,203.368l17.7,12.64-13.311,36.6-16.6-30.443ZM317.47,279.59a8.006,8.006,0,0,0,9.279-3.295l48.721-76.561,11.845,21.717L313.838,334.493l-24.756-64.366ZM123,286.247a8,8,0,0,0,10.655-.59l53.008-53.008,13.444,80.666a8,8,0,0,0,13.159,4.706L243.349,291.7,192.215,404.193l-40.862-95.344a8,8,0,0,0-13.01-2.506l-22.529,22.529-19.1-63.652Zm-91-8.7,49.916-18.719c-.052.062-.112.114-.163.178L32,321.194Z"/><path d="M160,112a96,96,0,1,0,96-96A96.108,96.108,0,0,0,160,112Zm176,0a80,80,0,1,1-80-80A80.091,80.091,0,0,1,336,112Z"/><path d="M248,64v9.376A24,24,0,0,0,256,120a8,8,0,0,1,0,16H240a8,8,0,0,0,0,16h8v8a8,8,0,0,0,16,0v-9.376A24,24,0,0,0,256,104a8,8,0,0,1,0-16h16a8,8,0,0,0,0-16h-8V64a8,8,0,0,0-16,0Z"/></svg>
